<svg width="200" height="200" viewBox="0 0 200 200" xmlns="http://www.w3.org/2000/svg">
  <defs>
    <linearGradient id="ayako-bg" x1="0%" y1="0%" x2="100%" y2="100%">
      <stop offset="0%" style="stop-color:#f8fafc;stop-opacity:1" />
      <stop offset="100%" style="stop-color:#e2e8f0;stop-opacity:1" />
    </linearGradient>
    <linearGradient id="ayako-hair" x1="0%" y1="0%" x2="100%" y2="100%">
      <stop offset="0%" style="stop-color:#92400e;stop-opacity:1" />
      <stop offset="100%" style="stop-color:#78350f;stop-opacity:1" />
    </linearGradient>
    <linearGradient id="ayako-face" x1="0%" y1="0%" x2="100%" y2="100%">
      <stop offset="0%" style="stop-color:#fef3c7;stop-opacity:1" />
      <stop offset="100%" style="stop-color:#fde68a;stop-opacity:1" />
    </linearGradient>
  </defs>
  
  <!-- Background -->
  <rect width="200" height="200" fill="url(#ayako-bg)"/>
  
  <!-- Face -->
  <ellipse cx="100" cy="110" rx="45" ry="50" fill="url(#ayako-face)"/>
  
  <!-- Hair -->
  <ellipse cx="100" cy="85" rx="55" ry="45" fill="url(#ayako-hair)"/>
  <ellipse cx="80" cy="70" rx="25" ry="30" fill="url(#ayako-hair)"/>
  <ellipse cx="120" cy="70" rx="25" ry="30" fill="url(#ayako-hair)"/>
  
  <!-- Eyes -->
  <ellipse cx="90" cy="100" rx="6" ry="8" fill="#1f2937"/>
  <ellipse cx="110" cy="100" rx="6" ry="8" fill="#1f2937"/>
  <ellipse cx="91" cy="98" rx="2" ry="3" fill="#ffffff"/>
  <ellipse cx="111" cy="98" rx="2" ry="3" fill="#ffffff"/>
  
  <!-- Eyebrows -->
  <path d="M 82 90 Q 90 87 98 90" stroke="#78350f" stroke-width="2" fill="none"/>
  <path d="M 102 90 Q 110 87 118 90" stroke="#78350f" stroke-width="2" fill="none"/>
  
  <!-- Nose -->
  <ellipse cx="100" cy="108" rx="2" ry="3" fill="#f59e0b" opacity="0.3"/>
  
  <!-- Mouth -->
  <path d="M 92 120 Q 100 126 108 120" stroke="#dc2626" stroke-width="2" fill="none"/>
  
  <!-- Cheeks -->
  <ellipse cx="75" cy="115" rx="8" ry="6" fill="#fbbf24" opacity="0.4"/>
  <ellipse cx="125" cy="115" rx="8" ry="6" fill="#fbbf24" opacity="0.4"/>
  
  <!-- Accessories -->
  <ellipse cx="70" cy="85" rx="4" ry="6" fill="#ef4444" opacity="0.8"/>
  <ellipse cx="130" cy="85" rx="4" ry="6" fill="#ef4444" opacity="0.8"/>
  
  <!-- Subtle pattern overlay -->
  <circle cx="100" cy="100" r="80" fill="none" stroke="#8b4513" stroke-width="0.5" opacity="0.2"/>
</svg>
