<svg width="200" height="200" viewBox="0 0 200 200" xmlns="http://www.w3.org/2000/svg">
  <defs>
    <linearGradient id="skinGradient" x1="0%" y1="0%" x2="100%" y2="100%">
      <stop offset="0%" style="stop-color:#FDBCB4"/>
      <stop offset="100%" style="stop-color:#E8A598"/>
    </linearGradient>
    <linearGradient id="hairGradient" x1="0%" y1="0%" x2="100%" y2="100%">
      <stop offset="0%" style="stop-color:#4A5568"/>
      <stop offset="100%" style="stop-color:#2D3748"/>
    </linearGradient>
    <linearGradient id="bgGradient" x1="0%" y1="0%" x2="100%" y2="100%">
      <stop offset="0%" style="stop-color:#8B4513" stop-opacity="0.1"/>
      <stop offset="100%" style="stop-color:#8B4513" stop-opacity="0.05"/>
    </linearGradient>
  </defs>
  
  <!-- Background -->
  <circle cx="100" cy="100" r="100" fill="url(#bgGradient)"/>
  
  <!-- Face -->
  <circle cx="100" cy="90" r="45" fill="url(#skinGradient)"/>
  
  <!-- Hair -->
  <ellipse cx="100" cy="65" rx="50" ry="35" fill="url(#hairGradient)"/>
  
  <!-- Eyes -->
  <circle cx="88" cy="85" r="3" fill="#2D3748"/>
  <circle cx="112" cy="85" r="3" fill="#2D3748"/>
  <circle cx="89" cy="84" r="1" fill="#FFFFFF"/>
  <circle cx="113" cy="84" r="1" fill="#FFFFFF"/>
  
  <!-- Nose -->
  <ellipse cx="100" cy="95" rx="2" ry="3" fill="#E8A598"/>
  
  <!-- Mouth -->
  <path d="M 95 105 Q 100 110 105 105" stroke="#D69E2E" stroke-width="2" fill="none"/>
  
  <!-- Glasses -->
  <circle cx="88" cy="85" r="12" fill="none" stroke="#4A5568" stroke-width="2"/>
  <circle cx="112" cy="85" r="12" fill="none" stroke="#4A5568" stroke-width="2"/>
  <line x1="100" y1="85" x2="100" y2="85" stroke="#4A5568" stroke-width="2"/>
  
  <!-- Body/Shirt -->
  <rect x="70" y="135" width="60" height="65" rx="10" fill="#3182CE"/>
  <rect x="75" y="140" width="50" height="55" rx="5" fill="#2B6CB0"/>
</svg>
