<svg width="200" height="200" viewBox="0 0 200 200" fill="none" xmlns="http://www.w3.org/2000/svg">
  <!-- 背景円 -->
  <circle cx="100" cy="100" r="100" fill="#fef2f2"/>
  
  <!-- 顔 -->
  <circle cx="100" cy="80" r="35" fill="#fecaca"/>
  
  <!-- 体 -->
  <ellipse cx="100" cy="155" rx="50" ry="35" fill="#fecaca"/>
  
  <!-- 髪（ロングヘア風） -->
  <path d="M70 55 Q100 40 130 55 Q135 65 130 75 Q125 85 120 90 Q115 95 100 95 Q85 95 80 90 Q75 85 70 75 Q65 65 70 55 Z" fill="#7f1d1d"/>
  
  <!-- 目 -->
  <circle cx="90" cy="75" r="3" fill="#7f1d1d"/>
  <circle cx="110" cy="75" r="3" fill="#7f1d1d"/>
  
  <!-- 口（笑顔） -->
  <path d="M92 88 Q100 95 108 88" stroke="#dc2626" stroke-width="2" fill="none" stroke-linecap="round"/>
  
  <!-- チーク -->
  <circle cx="78" cy="82" r="4" fill="#fca5a5" opacity="0.6"/>
  <circle cx="122" cy="82" r="4" fill="#fca5a5" opacity="0.6"/>
</svg>
