<svg width="200" height="200" viewBox="0 0 200 200" xmlns="http://www.w3.org/2000/svg">
  <defs>
    <linearGradient id="toramasa-bg" x1="0%" y1="0%" x2="100%" y2="100%">
      <stop offset="0%" style="stop-color:#1e293b;stop-opacity:1" />
      <stop offset="100%" style="stop-color:#0f172a;stop-opacity:1" />
    </linearGradient>
    <linearGradient id="toramasa-hair" x1="0%" y1="0%" x2="100%" y2="100%">
      <stop offset="0%" style="stop-color:#1f2937;stop-opacity:1" />
      <stop offset="100%" style="stop-color:#111827;stop-opacity:1" />
    </linearGradient>
    <linearGradient id="toramasa-face" x1="0%" y1="0%" x2="100%" y2="100%">
      <stop offset="0%" style="stop-color:#fbbf24;stop-opacity:1" />
      <stop offset="100%" style="stop-color:#f59e0b;stop-opacity:1" />
    </linearGradient>
  </defs>
  
  <!-- Background -->
  <rect width="200" height="200" fill="url(#toramasa-bg)"/>
  
  <!-- Face -->
  <ellipse cx="100" cy="115" rx="48" ry="52" fill="url(#toramasa-face)"/>
  
  <!-- Hair -->
  <ellipse cx="100" cy="80" rx="58" ry="40" fill="url(#toramasa-hair)"/>
  <rect x="42" y="65" width="116" height="25" fill="url(#toramasa-hair)"/>
  
  <!-- Eyes -->
  <ellipse cx="88" cy="105" rx="7" ry="9" fill="#1f2937"/>
  <ellipse cx="112" cy="105" rx="7" ry="9" fill="#1f2937"/>
  <ellipse cx="89" cy="103" rx="2" ry="3" fill="#ffffff"/>
  <ellipse cx="113" cy="103" rx="2" ry="3" fill="#ffffff"/>
  
  <!-- Eyebrows -->
  <rect x="80" y="92" width="16" height="3" fill="#111827"/>
  <rect x="104" y="92" width="16" height="3" fill="#111827"/>
  
  <!-- Nose -->
  <polygon points="100,112 95,120 105,120" fill="#d97706" opacity="0.4"/>
  
  <!-- Mouth -->
  <rect x="93" y="125" width="14" height="4" rx="2" fill="#7c2d12"/>
  
  <!-- Beard -->
  <ellipse cx="100" cy="145" rx="25" ry="15" fill="url(#toramasa-hair)"/>
  
  <!-- Glasses -->
  <circle cx="88" cy="105" r="18" fill="none" stroke="#6b7280" stroke-width="2"/>
  <circle cx="112" cy="105" r="18" fill="none" stroke="#6b7280" stroke-width="2"/>
  <line x1="106" y1="105" x2="94" y2="105" stroke="#6b7280" stroke-width="2"/>
  <line x1="70" y1="105" x2="60" y2="100" stroke="#6b7280" stroke-width="2"/>
  <line x1="130" y1="105" x2="140" y2="100" stroke="#6b7280" stroke-width="2"/>
  
  <!-- Geometric accent -->
  <polygon points="100,60 110,70 100,80 90,70" fill="#ef4444" opacity="0.7"/>
</svg>
